<svg xmlns="http://www.w3.org/2000/svg" xmlns:xlink="http://www.w3.org/1999/xlink" width="500" zoomAndPan="magnify" viewBox="0 0 375 374.999991" height="500" preserveAspectRatio="xMidYMid meet" version="1.0"><defs><g/><clipPath id="42db93cd20"><path d="M 68 152.039062 L 211 152.039062 L 211 223.566406 L 68 223.566406 Z M 68 152.039062 " clip-rule="nonzero"/></clipPath><clipPath id="6a2cb90e2d"><path d="M 165.914062 159.371094 L 196.707031 159.371094 L 196.707031 184.324219 L 165.914062 184.324219 Z M 165.914062 159.371094 " clip-rule="nonzero"/></clipPath><clipPath id="2b65d58354"><path d="M 165.914062 175.890625 L 185.480469 175.890625 L 185.480469 192.761719 L 165.914062 192.761719 Z M 165.914062 175.890625 " clip-rule="nonzero"/></clipPath></defs><rect x="-37.5" width="450" fill="#ffffff" y="-37.499999" height="449.999989" fill-opacity="1"/><rect x="-37.5" width="450" fill="#ffffff" y="-37.499999" height="449.999989" fill-opacity="1"/><rect x="-37.5" width="450" fill="#ffffff" y="-37.499999" height="449.999989" fill-opacity="1"/><rect x="-37.5" width="450" fill="#ffffff" y="-37.499999" height="449.999989" fill-opacity="1"/><g fill="#000000" fill-opacity="1"><g transform="translate(188.558476, 216.244202)"><g><path d="M 10.953125 0.375 C 9.660156 0.375 8.4375 0.148438 7.28125 -0.296875 C 6.132812 -0.742188 5.125 -1.40625 4.25 -2.28125 C 3.382812 -3.164062 2.695312 -4.257812 2.1875 -5.5625 C 1.6875 -6.875 1.4375 -8.390625 1.4375 -10.109375 C 1.4375 -11.804688 1.695312 -13.316406 2.21875 -14.640625 C 2.75 -15.972656 3.453125 -17.097656 4.328125 -18.015625 C 5.210938 -18.941406 6.238281 -19.644531 7.40625 -20.125 C 8.582031 -20.613281 9.820312 -20.859375 11.125 -20.859375 C 12.4375 -20.859375 13.613281 -20.585938 14.65625 -20.046875 C 15.707031 -19.515625 16.578125 -18.894531 17.265625 -18.1875 L 14.828125 -15.234375 C 14.296875 -15.710938 13.742188 -16.101562 13.171875 -16.40625 C 12.597656 -16.707031 11.945312 -16.859375 11.21875 -16.859375 C 10.519531 -16.859375 9.863281 -16.707031 9.25 -16.40625 C 8.632812 -16.101562 8.097656 -15.671875 7.640625 -15.109375 C 7.191406 -14.546875 6.835938 -13.851562 6.578125 -13.03125 C 6.316406 -12.21875 6.1875 -11.296875 6.1875 -10.265625 C 6.1875 -8.148438 6.632812 -6.507812 7.53125 -5.34375 C 8.4375 -4.1875 9.644531 -3.609375 11.15625 -3.609375 C 11.988281 -3.609375 12.734375 -3.789062 13.390625 -4.15625 C 14.054688 -4.519531 14.640625 -4.976562 15.140625 -5.53125 L 17.59375 -2.640625 C 15.875 -0.628906 13.660156 0.375 10.953125 0.375 Z M 10.953125 0.375 "/></g></g></g><g fill="#000000" fill-opacity="1"><g transform="translate(206.828246, 216.244202)"><g><path d="M 7.21875 -10.359375 L 6.71875 -8.484375 L 11.09375 -8.484375 L 10.609375 -10.359375 C 10.316406 -11.390625 10.035156 -12.476562 9.765625 -13.625 C 9.492188 -14.78125 9.222656 -15.890625 8.953125 -16.953125 L 8.828125 -16.953125 C 8.578125 -15.867188 8.316406 -14.753906 8.046875 -13.609375 C 7.785156 -12.472656 7.507812 -11.390625 7.21875 -10.359375 Z M -0.1875 0 L 6.21875 -20.484375 L 11.78125 -20.484375 L 18.1875 0 L 13.28125 0 L 12.03125 -4.875 L 5.78125 -4.875 L 4.515625 0 Z M -0.1875 0 "/></g></g></g><g fill="#000000" fill-opacity="1"><g transform="translate(224.815494, 216.244202)"><g><path d="M 8.671875 0.375 C 7.328125 0.375 5.988281 0.128906 4.65625 -0.359375 C 3.332031 -0.847656 2.144531 -1.585938 1.09375 -2.578125 L 3.734375 -5.75 C 4.472656 -5.125 5.285156 -4.609375 6.171875 -4.203125 C 7.054688 -3.804688 7.929688 -3.609375 8.796875 -3.609375 C 9.753906 -3.609375 10.46875 -3.785156 10.9375 -4.140625 C 11.414062 -4.492188 11.65625 -4.976562 11.65625 -5.59375 C 11.65625 -5.90625 11.585938 -6.175781 11.453125 -6.40625 C 11.316406 -6.632812 11.113281 -6.835938 10.84375 -7.015625 C 10.582031 -7.191406 10.269531 -7.359375 9.90625 -7.515625 C 9.539062 -7.671875 9.140625 -7.847656 8.703125 -8.046875 L 6.03125 -9.171875 C 5.507812 -9.378906 5 -9.648438 4.5 -9.984375 C 4.007812 -10.316406 3.570312 -10.707031 3.1875 -11.15625 C 2.800781 -11.613281 2.492188 -12.140625 2.265625 -12.734375 C 2.035156 -13.328125 1.921875 -14.003906 1.921875 -14.765625 C 1.921875 -15.597656 2.097656 -16.382812 2.453125 -17.125 C 2.804688 -17.875 3.304688 -18.523438 3.953125 -19.078125 C 4.609375 -19.628906 5.378906 -20.0625 6.265625 -20.375 C 7.148438 -20.695312 8.128906 -20.859375 9.203125 -20.859375 C 10.390625 -20.859375 11.566406 -20.625 12.734375 -20.15625 C 13.898438 -19.695312 14.921875 -19.03125 15.796875 -18.15625 L 13.4375 -15.234375 C 12.769531 -15.753906 12.097656 -16.15625 11.421875 -16.4375 C 10.753906 -16.71875 10.015625 -16.859375 9.203125 -16.859375 C 8.410156 -16.859375 7.773438 -16.695312 7.296875 -16.375 C 6.828125 -16.050781 6.59375 -15.597656 6.59375 -15.015625 C 6.59375 -14.703125 6.671875 -14.429688 6.828125 -14.203125 C 6.984375 -13.984375 7.203125 -13.785156 7.484375 -13.609375 C 7.773438 -13.429688 8.109375 -13.265625 8.484375 -13.109375 C 8.859375 -12.953125 9.265625 -12.78125 9.703125 -12.59375 L 12.34375 -11.53125 C 13.601562 -11.019531 14.59375 -10.328125 15.3125 -9.453125 C 16.03125 -8.578125 16.390625 -7.414062 16.390625 -5.96875 C 16.390625 -5.101562 16.21875 -4.289062 15.875 -3.53125 C 15.53125 -2.769531 15.023438 -2.097656 14.359375 -1.515625 C 13.703125 -0.941406 12.890625 -0.484375 11.921875 -0.140625 C 10.960938 0.203125 9.878906 0.375 8.671875 0.375 Z M 8.671875 0.375 "/></g></g></g><g fill="#000000" fill-opacity="1"><g transform="translate(242.269088, 216.244202)"><g><path d="M 2.421875 0 L 2.421875 -20.484375 L 7.03125 -20.484375 L 7.03125 -12.59375 L 14.09375 -12.59375 L 14.09375 -20.484375 L 18.75 -20.484375 L 18.75 0 L 14.09375 0 L 14.09375 -8.546875 L 7.03125 -8.546875 L 7.03125 0 Z M 2.421875 0 "/></g></g></g><g fill="#ffbe00" fill-opacity="1"><g transform="translate(214.000747, 179.730957)"><g><path d="M 11.046875 0.484375 C 9.585938 0.484375 8.320312 0.257812 7.25 -0.1875 C 6.1875 -0.632812 5.3125 -1.25 4.625 -2.03125 C 3.9375 -2.8125 3.425781 -3.738281 3.09375 -4.8125 C 2.757812 -5.882812 2.59375 -7.039062 2.59375 -8.28125 L 2.59375 -22.234375 L 5.71875 -22.234375 L 5.71875 -8.640625 C 5.71875 -6.410156 6.207031 -4.789062 7.1875 -3.78125 C 8.175781 -2.78125 9.460938 -2.28125 11.046875 -2.28125 C 11.835938 -2.28125 12.554688 -2.398438 13.203125 -2.640625 C 13.859375 -2.890625 14.421875 -3.269531 14.890625 -3.78125 C 15.359375 -4.300781 15.722656 -4.960938 15.984375 -5.765625 C 16.242188 -6.566406 16.375 -7.523438 16.375 -8.640625 L 16.375 -22.234375 L 19.484375 -22.234375 L 19.484375 -8.28125 C 19.484375 -7.039062 19.316406 -5.882812 18.984375 -4.8125 C 18.648438 -3.738281 18.132812 -2.8125 17.4375 -2.03125 C 16.75 -1.25 15.875 -0.632812 14.8125 -0.1875 C 13.75 0.257812 12.492188 0.484375 11.046875 0.484375 Z M 11.046875 0.484375 "/></g></g></g><g fill="#ffbe00" fill-opacity="1"><g transform="translate(242.077349, 179.730957)"><g><path d="M 8.671875 -22.46875 C 11.785156 -22.46875 14.179688 -21.875 15.859375 -20.6875 C 17.546875 -19.5 18.390625 -17.726562 18.390625 -15.375 C 18.390625 -14.09375 18.160156 -12.992188 17.703125 -12.078125 C 17.242188 -11.171875 16.578125 -10.429688 15.703125 -9.859375 C 14.835938 -9.296875 13.785156 -8.882812 12.546875 -8.625 C 11.304688 -8.375 9.90625 -8.25 8.34375 -8.25 L 5.875 -8.25 L 5.875 0 L 2.765625 0 L 2.765625 -21.921875 C 3.640625 -22.128906 4.613281 -22.269531 5.6875 -22.34375 C 6.769531 -22.425781 7.765625 -22.46875 8.671875 -22.46875 Z M 8.921875 -19.734375 C 7.597656 -19.734375 6.582031 -19.703125 5.875 -19.640625 L 5.875 -10.90625 L 8.21875 -10.90625 C 9.289062 -10.90625 10.253906 -10.972656 11.109375 -11.109375 C 11.960938 -11.253906 12.679688 -11.492188 13.265625 -11.828125 C 13.859375 -12.160156 14.3125 -12.613281 14.625 -13.1875 C 14.945312 -13.769531 15.109375 -14.507812 15.109375 -15.40625 C 15.109375 -16.257812 14.941406 -16.960938 14.609375 -17.515625 C 14.285156 -18.078125 13.835938 -18.523438 13.265625 -18.859375 C 12.703125 -19.191406 12.046875 -19.421875 11.296875 -19.546875 C 10.546875 -19.671875 9.753906 -19.734375 8.921875 -19.734375 Z M 8.921875 -19.734375 "/></g></g></g><g clip-path="url(#42db93cd20)"><path fill="#ffbe00" d="M 157.769531 195.359375 C 157.769531 193.773438 156.484375 192.492188 154.894531 192.492188 L 124.363281 192.492188 C 122.777344 192.492188 121.488281 193.773438 121.488281 195.359375 C 121.488281 196.9375 122.777344 198.222656 124.363281 198.222656 L 154.894531 198.222656 C 156.484375 198.222656 157.769531 196.9375 157.769531 195.359375 Z M 186.953125 181.242188 L 183.183594 190.886719 L 177.792969 182.039062 L 167.421875 181.445312 L 174.203125 173.605469 L 171.566406 163.59375 L 181.144531 167.597656 L 189.886719 162 L 189.027344 172.316406 L 197.066406 178.871094 Z M 171.910156 220.648438 C 170.546875 220.648438 169.441406 219.546875 169.441406 218.1875 C 169.441406 216.828125 170.546875 215.726562 171.910156 215.726562 C 173.277344 215.726562 174.382812 216.828125 174.382812 218.1875 C 174.382812 219.546875 173.277344 220.648438 171.910156 220.648438 Z M 142.910156 220.648438 C 141.542969 220.648438 140.4375 219.546875 140.4375 218.1875 C 140.4375 216.828125 141.542969 215.726562 142.910156 215.726562 C 144.273438 215.726562 145.378906 216.828125 145.378906 218.1875 C 145.378906 219.546875 144.273438 220.648438 142.910156 220.648438 Z M 203.53125 157.679688 L 130.371094 157.679688 C 129.472656 156.472656 129.320312 156.269531 128.417969 155.0625 C 128.878906 153.316406 127.226562 152.144531 125.796875 152.144531 L 88.621094 152.144531 C 84.914062 152.144531 84.921875 157.871094 88.621094 157.871094 L 118.363281 157.871094 C 114.355469 158.804688 111.910156 163.0625 113.277344 167.035156 L 121.550781 167.035156 C 123.898438 167.035156 125.78125 169.046875 125.554688 171.433594 C 125.359375 173.511719 123.527344 175.054688 121.433594 175.054688 L 120.503906 175.054688 C 118.96875 175.054688 117.964844 176.660156 118.644531 178.039062 C 118.992188 178.746094 119.714844 179.191406 120.503906 179.191406 L 142.503906 179.191406 C 144.851562 179.191406 146.738281 181.203125 146.511719 183.585938 C 146.316406 185.664062 144.480469 187.210938 142.386719 187.210938 L 126.511719 187.210938 C 124.972656 187.210938 123.96875 188.820312 124.648438 190.191406 C 125 190.898438 125.722656 191.347656 126.511719 191.347656 L 154.777344 191.347656 C 156.871094 191.347656 158.703125 192.894531 158.902344 194.972656 C 159.128906 197.355469 157.242188 199.367188 154.894531 199.367188 L 129.179688 199.367188 L 130.78125 202.601562 C 131.976562 205.023438 134.449219 206.558594 137.15625 206.558594 L 178.492188 206.558594 C 178.597656 206.558594 178.699219 206.554688 178.804688 206.546875 C 177.828125 208.578125 175.75 209.996094 173.351562 209.996094 L 136.144531 209.996094 C 134.871094 209.996094 133.839844 211.046875 133.878906 212.324219 C 133.917969 213.5625 135 214.515625 136.242188 214.515625 L 139.558594 214.515625 C 138.554688 215.425781 137.921875 216.730469 137.921875 218.1875 C 137.921875 221.117188 140.464844 223.457031 143.472656 223.125 C 145.765625 222.875 147.617188 221.023438 147.867188 218.738281 C 148.046875 217.0625 147.386719 215.535156 146.261719 214.515625 L 168.5625 214.515625 C 167.558594 215.425781 166.925781 216.730469 166.925781 218.1875 C 166.925781 221 169.269531 223.265625 172.117188 223.152344 C 174.710938 223.050781 176.839844 220.890625 176.898438 218.304688 C 176.933594 216.722656 176.226562 215.300781 175.101562 214.367188 C 180.089844 213.539062 183.90625 209.222656 183.933594 204.027344 C 184.046875 203.890625 184.160156 203.753906 184.265625 203.609375 L 209.304688 168.898438 C 212.6875 164.210938 209.324219 157.679688 203.53125 157.679688 Z M 145.378906 183.289062 C 145.425781 181.667969 144.121094 180.335938 142.503906 180.335938 L 118.324219 180.335938 C 116.734375 180.335938 115.449219 181.621094 115.449219 183.203125 C 115.449219 184.78125 116.734375 186.066406 118.324219 186.066406 L 142.382812 186.066406 C 143.960938 186.066406 145.332031 184.855469 145.378906 183.289062 Z M 111.234375 183.203125 C 111.234375 181.621094 109.945312 180.335938 108.359375 180.335938 L 98.9375 180.335938 C 95.230469 180.335938 95.238281 186.066406 98.9375 186.066406 L 108.359375 186.066406 C 109.945312 186.066406 111.234375 184.78125 111.234375 183.203125 Z M 90.730469 171.046875 C 90.730469 169.464844 89.441406 168.183594 87.855469 168.183594 L 70.988281 168.183594 C 67.285156 168.183594 67.289062 173.910156 70.988281 173.910156 L 87.855469 173.910156 C 89.441406 173.910156 90.730469 172.628906 90.730469 171.046875 Z M 114.398438 192.492188 L 87.230469 192.492188 C 83.527344 192.492188 83.53125 198.222656 87.230469 198.222656 L 114.398438 198.222656 C 115.984375 198.222656 117.273438 196.9375 117.273438 195.359375 C 117.273438 193.773438 115.984375 192.492188 114.398438 192.492188 Z M 121.429688 173.910156 C 123.003906 173.910156 124.375 172.703125 124.425781 171.132812 C 124.472656 169.511719 123.167969 168.183594 121.550781 168.183594 L 97.820312 168.183594 C 96.230469 168.183594 94.945312 169.464844 94.945312 171.046875 C 94.945312 172.628906 96.230469 173.910156 97.820312 173.910156 L 121.429688 173.910156 " fill-opacity="1" fill-rule="nonzero"/></g><g clip-path="url(#6a2cb90e2d)"><path fill="#ffbe00" d="M 165.914062 159.371094 L 197.230469 159.371094 L 197.230469 185.164062 L 165.914062 185.164062 Z M 165.914062 159.371094 " fill-opacity="1" fill-rule="nonzero"/></g><g clip-path="url(#2b65d58354)"><path fill="#ffbe00" d="M 165.914062 175.890625 L 186.179688 175.890625 L 186.179688 192.46875 L 165.914062 192.46875 Z M 165.914062 175.890625 " fill-opacity="1" fill-rule="nonzero"/></g><path fill="#ffffff" d="M 170.257812 175.351562 C 170.566406 175.210938 170.835938 175.027344 171.066406 174.796875 C 171.296875 174.566406 171.480469 174.292969 171.621094 173.988281 C 171.757812 173.679688 171.828125 173.347656 171.828125 172.996094 C 171.828125 172.640625 171.757812 172.308594 171.621094 172.003906 C 171.480469 171.695312 171.296875 171.425781 171.066406 171.195312 C 170.835938 170.964844 170.566406 170.777344 170.257812 170.640625 C 169.949219 170.503906 169.621094 170.433594 169.265625 170.433594 C 168.910156 170.433594 168.582031 170.503906 168.273438 170.640625 C 167.964844 170.777344 167.695312 170.964844 167.464844 171.195312 C 167.234375 171.425781 167.050781 171.695312 166.910156 172.003906 C 166.773438 172.308594 166.703125 172.640625 166.703125 172.996094 C 166.703125 173.347656 166.773438 173.679688 166.910156 173.988281 C 167.050781 174.292969 167.234375 174.566406 167.464844 174.796875 C 167.695312 175.027344 167.964844 175.210938 168.273438 175.351562 C 168.582031 175.488281 168.910156 175.558594 169.265625 175.558594 C 169.621094 175.558594 169.949219 175.488281 170.257812 175.351562 " fill-opacity="1" fill-rule="nonzero"/><path fill="#ffffff" d="M 180.34375 180.011719 C 180.113281 179.78125 179.84375 179.597656 179.535156 179.457031 C 179.230469 179.320312 178.898438 179.25 178.542969 179.25 C 178.191406 179.25 177.859375 179.320312 177.550781 179.457031 C 177.246094 179.597656 176.976562 179.78125 176.746094 180.011719 C 176.515625 180.242188 176.328125 180.511719 176.1875 180.820312 C 176.050781 181.128906 175.980469 181.460938 175.980469 181.8125 C 175.980469 182.167969 176.050781 182.496094 176.1875 182.804688 C 176.328125 183.113281 176.515625 183.382812 176.746094 183.613281 C 176.976562 183.84375 177.246094 184.027344 177.550781 184.167969 C 177.859375 184.304688 178.191406 184.375 178.542969 184.375 C 178.898438 184.375 179.230469 184.304688 179.535156 184.167969 C 179.84375 184.027344 180.113281 183.84375 180.34375 183.613281 C 180.574219 183.382812 180.761719 183.113281 180.898438 182.804688 C 181.039062 182.496094 181.109375 182.167969 181.109375 181.8125 C 181.109375 181.460938 181.039062 181.128906 180.898438 180.820312 C 180.761719 180.511719 180.574219 180.242188 180.34375 180.011719 " fill-opacity="1" fill-rule="nonzero"/><path fill="#ffffff" d="M 182.308594 183.429688 C 182.09375 183.921875 181.796875 184.351562 181.429688 184.71875 C 181.058594 185.089844 180.628906 185.382812 180.136719 185.597656 C 179.644531 185.8125 179.113281 185.921875 178.542969 185.921875 C 177.972656 185.921875 177.445312 185.8125 176.953125 185.597656 C 176.460938 185.382812 176.027344 185.089844 175.660156 184.71875 C 175.289062 184.351562 174.996094 183.921875 174.78125 183.429688 C 174.566406 182.9375 174.457031 182.40625 174.457031 181.835938 C 174.457031 181.265625 174.566406 180.738281 174.78125 180.242188 C 174.996094 179.75 175.289062 179.320312 175.660156 178.949219 C 176.027344 178.582031 176.460938 178.289062 176.953125 178.074219 C 177.445312 177.859375 177.972656 177.75 178.542969 177.75 C 179.113281 177.75 179.644531 177.859375 180.136719 178.074219 C 180.628906 178.289062 181.058594 178.582031 181.429688 178.949219 C 181.796875 179.320312 182.09375 179.75 182.308594 180.242188 C 182.519531 180.738281 182.628906 181.265625 182.628906 181.835938 C 182.628906 182.40625 182.519531 182.9375 182.308594 183.429688 Z M 170.164062 185.621094 L 168.433594 185.621094 L 177.390625 169.140625 L 179.121094 169.140625 Z M 166.378906 175.902344 C 166.011719 175.535156 165.71875 175.101562 165.503906 174.609375 C 165.289062 174.117188 165.179688 173.585938 165.179688 173.019531 C 165.179688 172.449219 165.289062 171.917969 165.503906 171.425781 C 165.71875 170.933594 166.011719 170.503906 166.378906 170.132812 C 166.75 169.765625 167.179688 169.472656 167.671875 169.253906 C 168.164062 169.042969 168.695312 168.933594 169.265625 168.933594 C 169.835938 168.933594 170.367188 169.042969 170.859375 169.253906 C 171.351562 169.472656 171.78125 169.765625 172.152344 170.132812 C 172.519531 170.503906 172.8125 170.933594 173.027344 171.425781 C 173.242188 171.917969 173.351562 172.449219 173.351562 173.019531 C 173.351562 173.585938 173.242188 174.117188 173.027344 174.609375 C 172.8125 175.101562 172.519531 175.535156 172.152344 175.902344 C 171.78125 176.273438 171.351562 176.566406 170.859375 176.78125 C 170.367188 176.996094 169.835938 177.101562 169.265625 177.101562 C 168.695312 177.101562 168.164062 176.996094 167.671875 176.78125 C 167.179688 176.566406 166.75 176.273438 166.378906 175.902344 Z M 190.78125 180.015625 L 192.53125 177.710938 L 190.828125 175.375 L 191.867188 172.675781 L 189.570312 170.917969 L 189.800781 168.03125 L 187.101562 166.992188 L 186.511719 164.160156 L 183.628906 163.917969 L 182.269531 161.363281 L 179.433594 161.945312 L 177.40625 159.882812 L 174.851562 161.242188 L 172.324219 159.828125 L 170.253906 161.851562 L 167.429688 161.210938 L 166.015625 163.734375 L 163.128906 163.917969 L 162.484375 166.734375 L 159.761719 167.71875 L 159.933594 170.609375 L 157.601562 172.320312 L 158.582031 175.039062 L 156.828125 177.34375 L 158.53125 179.679688 L 157.496094 182.382812 L 159.792969 184.140625 L 159.5625 187.027344 L 162.257812 188.066406 L 162.847656 190.898438 L 165.730469 191.140625 L 167.089844 193.695312 L 169.925781 193.113281 L 171.957031 195.175781 L 174.511719 193.816406 L 177.035156 195.226562 L 179.109375 193.207031 L 181.929688 193.847656 L 183.34375 191.324219 L 186.230469 191.140625 L 186.878906 188.320312 L 189.601562 187.335938 L 189.429688 184.449219 L 191.761719 182.738281 L 190.78125 180.015625 " fill-opacity="1" fill-rule="nonzero"/></svg>