<svg xmlns="http://www.w3.org/2000/svg" xmlns:xlink="http://www.w3.org/1999/xlink" width="500" zoomAndPan="magnify" viewBox="0 0 375 374.999991" height="500" preserveAspectRatio="xMidYMid meet" version="1.0"><defs><g/><clipPath id="b863a8dd71"><path d="M 73 153.765625 L 210 153.765625 L 210 222 L 73 222 Z M 73 153.765625 " clip-rule="nonzero"/></clipPath><clipPath id="3a5620891d"><path d="M 166.902344 160.761719 L 196.285156 160.761719 L 196.285156 184.574219 L 166.902344 184.574219 Z M 166.902344 160.761719 " clip-rule="nonzero"/></clipPath><clipPath id="42bc2e96d4"><path d="M 166.902344 176.523438 L 185.574219 176.523438 L 185.574219 192.621094 L 166.902344 192.621094 Z M 166.902344 176.523438 " clip-rule="nonzero"/></clipPath></defs><rect x="-37.5" width="450" fill="#ffffff" y="-37.499999" height="449.999989" fill-opacity="1"/><rect x="-37.5" width="450" fill="#55298b" y="-37.499999" height="449.999989" fill-opacity="1"/><g fill="#ffffff" fill-opacity="1"><g transform="translate(188.495886, 214.800666)"><g><path d="M 10.453125 0.359375 C 9.210938 0.359375 8.039062 0.144531 6.9375 -0.28125 C 5.84375 -0.707031 4.878906 -1.34375 4.046875 -2.1875 C 3.222656 -3.03125 2.570312 -4.070312 2.09375 -5.3125 C 1.613281 -6.5625 1.375 -8.007812 1.375 -9.65625 C 1.375 -11.269531 1.625 -12.710938 2.125 -13.984375 C 2.625 -15.253906 3.289062 -16.328125 4.125 -17.203125 C 4.96875 -18.078125 5.945312 -18.742188 7.0625 -19.203125 C 8.1875 -19.671875 9.367188 -19.90625 10.609375 -19.90625 C 11.867188 -19.90625 13 -19.648438 14 -19.140625 C 15 -18.628906 15.828125 -18.035156 16.484375 -17.359375 L 14.140625 -14.53125 C 13.640625 -14.988281 13.113281 -15.363281 12.5625 -15.65625 C 12.019531 -15.945312 11.398438 -16.09375 10.703125 -16.09375 C 10.035156 -16.09375 9.40625 -15.945312 8.8125 -15.65625 C 8.226562 -15.363281 7.722656 -14.945312 7.296875 -14.40625 C 6.867188 -13.875 6.53125 -13.21875 6.28125 -12.4375 C 6.03125 -11.65625 5.90625 -10.773438 5.90625 -9.796875 C 5.90625 -7.773438 6.332031 -6.210938 7.1875 -5.109375 C 8.050781 -4.003906 9.203125 -3.453125 10.640625 -3.453125 C 11.441406 -3.453125 12.15625 -3.625 12.78125 -3.96875 C 13.40625 -4.320312 13.957031 -4.757812 14.4375 -5.28125 L 16.78125 -2.515625 C 15.144531 -0.597656 13.035156 0.359375 10.453125 0.359375 Z M 10.453125 0.359375 "/></g></g></g><g fill="#ffffff" fill-opacity="1"><g transform="translate(205.934019, 214.800666)"><g><path d="M 6.890625 -9.890625 L 6.40625 -8.09375 L 10.578125 -8.09375 L 10.125 -9.890625 C 9.84375 -10.867188 9.570312 -11.90625 9.3125 -13 C 9.0625 -14.101562 8.804688 -15.164062 8.546875 -16.1875 L 8.421875 -16.1875 C 8.179688 -15.144531 7.9375 -14.078125 7.6875 -12.984375 C 7.4375 -11.898438 7.171875 -10.867188 6.890625 -9.890625 Z M -0.1875 0 L 5.9375 -19.546875 L 11.234375 -19.546875 L 17.359375 0 L 12.671875 0 L 11.484375 -4.640625 L 5.515625 -4.640625 L 4.3125 0 Z M -0.1875 0 "/></g></g></g><g fill="#ffffff" fill-opacity="1"><g transform="translate(223.1025, 214.800666)"><g><path d="M 8.265625 0.359375 C 6.992188 0.359375 5.722656 0.125 4.453125 -0.34375 C 3.179688 -0.8125 2.046875 -1.515625 1.046875 -2.453125 L 3.5625 -5.484375 C 4.257812 -4.878906 5.03125 -4.390625 5.875 -4.015625 C 6.726562 -3.640625 7.566406 -3.453125 8.390625 -3.453125 C 9.304688 -3.453125 9.988281 -3.617188 10.4375 -3.953125 C 10.894531 -4.296875 11.125 -4.753906 11.125 -5.328125 C 11.125 -5.628906 11.054688 -5.890625 10.921875 -6.109375 C 10.796875 -6.328125 10.609375 -6.519531 10.359375 -6.6875 C 10.109375 -6.863281 9.804688 -7.023438 9.453125 -7.171875 C 9.109375 -7.328125 8.722656 -7.492188 8.296875 -7.671875 L 5.75 -8.75 C 5.25 -8.945312 4.765625 -9.207031 4.296875 -9.53125 C 3.828125 -9.851562 3.40625 -10.226562 3.03125 -10.65625 C 2.664062 -11.082031 2.375 -11.578125 2.15625 -12.140625 C 1.9375 -12.710938 1.828125 -13.359375 1.828125 -14.078125 C 1.828125 -14.878906 1.992188 -15.632812 2.328125 -16.34375 C 2.671875 -17.050781 3.148438 -17.671875 3.765625 -18.203125 C 4.390625 -18.734375 5.125 -19.148438 5.96875 -19.453125 C 6.820312 -19.753906 7.757812 -19.90625 8.78125 -19.90625 C 9.914062 -19.90625 11.035156 -19.679688 12.140625 -19.234375 C 13.253906 -18.796875 14.234375 -18.160156 15.078125 -17.328125 L 12.828125 -14.53125 C 12.191406 -15.03125 11.550781 -15.414062 10.90625 -15.6875 C 10.269531 -15.957031 9.5625 -16.09375 8.78125 -16.09375 C 8.019531 -16.09375 7.414062 -15.9375 6.96875 -15.625 C 6.519531 -15.320312 6.296875 -14.890625 6.296875 -14.328125 C 6.296875 -14.023438 6.367188 -13.769531 6.515625 -13.5625 C 6.671875 -13.351562 6.878906 -13.160156 7.140625 -12.984375 C 7.410156 -12.816406 7.722656 -12.65625 8.078125 -12.5 C 8.441406 -12.351562 8.835938 -12.191406 9.265625 -12.015625 L 11.78125 -11 C 12.976562 -10.519531 13.921875 -9.859375 14.609375 -9.015625 C 15.296875 -8.179688 15.640625 -7.070312 15.640625 -5.6875 C 15.640625 -4.875 15.472656 -4.101562 15.140625 -3.375 C 14.816406 -2.644531 14.335938 -2.003906 13.703125 -1.453125 C 13.078125 -0.898438 12.304688 -0.457031 11.390625 -0.125 C 10.472656 0.195312 9.429688 0.359375 8.265625 0.359375 Z M 8.265625 0.359375 "/></g></g></g><g fill="#ffffff" fill-opacity="1"><g transform="translate(239.761611, 214.800666)"><g><path d="M 2.3125 0 L 2.3125 -19.546875 L 6.71875 -19.546875 L 6.71875 -12.015625 L 13.453125 -12.015625 L 13.453125 -19.546875 L 17.890625 -19.546875 L 17.890625 0 L 13.453125 0 L 13.453125 -8.15625 L 6.71875 -8.15625 L 6.71875 0 Z M 2.3125 0 "/></g></g></g><g fill="#ffbe00" fill-opacity="1"><g transform="translate(212.786564, 180.188855)"><g><path d="M 10.53125 0.453125 C 9.144531 0.453125 7.941406 0.238281 6.921875 -0.1875 C 5.898438 -0.613281 5.0625 -1.195312 4.40625 -1.9375 C 3.757812 -2.6875 3.273438 -3.570312 2.953125 -4.59375 C 2.640625 -5.613281 2.484375 -6.71875 2.484375 -7.90625 L 2.484375 -21.21875 L 5.453125 -21.21875 L 5.453125 -8.234375 C 5.453125 -6.109375 5.921875 -4.566406 6.859375 -3.609375 C 7.796875 -2.648438 9.019531 -2.171875 10.53125 -2.171875 C 11.289062 -2.171875 11.976562 -2.285156 12.59375 -2.515625 C 13.21875 -2.753906 13.753906 -3.117188 14.203125 -3.609375 C 14.660156 -4.097656 15.007812 -4.722656 15.25 -5.484375 C 15.5 -6.253906 15.625 -7.171875 15.625 -8.234375 L 15.625 -21.21875 L 18.59375 -21.21875 L 18.59375 -7.90625 C 18.59375 -6.71875 18.429688 -5.613281 18.109375 -4.59375 C 17.796875 -3.570312 17.304688 -2.6875 16.640625 -1.9375 C 15.984375 -1.195312 15.148438 -0.613281 14.140625 -0.1875 C 13.128906 0.238281 11.925781 0.453125 10.53125 0.453125 Z M 10.53125 0.453125 "/></g></g></g><g fill="#ffbe00" fill-opacity="1"><g transform="translate(239.576799, 180.188855)"><g><path d="M 8.265625 -21.4375 C 11.242188 -21.4375 13.535156 -20.867188 15.140625 -19.734375 C 16.742188 -18.597656 17.546875 -16.910156 17.546875 -14.671875 C 17.546875 -13.441406 17.328125 -12.394531 16.890625 -11.53125 C 16.453125 -10.664062 15.816406 -9.960938 14.984375 -9.421875 C 14.160156 -8.878906 13.15625 -8.484375 11.96875 -8.234375 C 10.789062 -7.992188 9.457031 -7.875 7.96875 -7.875 L 5.609375 -7.875 L 5.609375 0 L 2.640625 0 L 2.640625 -20.921875 C 3.472656 -21.117188 4.40625 -21.253906 5.4375 -21.328125 C 6.46875 -21.398438 7.410156 -21.4375 8.265625 -21.4375 Z M 8.515625 -18.828125 C 7.242188 -18.828125 6.273438 -18.800781 5.609375 -18.75 L 5.609375 -10.40625 L 7.84375 -10.40625 C 8.863281 -10.40625 9.78125 -10.472656 10.59375 -10.609375 C 11.414062 -10.742188 12.101562 -10.96875 12.65625 -11.28125 C 13.21875 -11.601562 13.648438 -12.035156 13.953125 -12.578125 C 14.265625 -13.128906 14.421875 -13.835938 14.421875 -14.703125 C 14.421875 -15.515625 14.257812 -16.1875 13.9375 -16.71875 C 13.625 -17.25 13.195312 -17.671875 12.65625 -17.984375 C 12.125 -18.304688 11.5 -18.523438 10.78125 -18.640625 C 10.0625 -18.765625 9.304688 -18.828125 8.515625 -18.828125 Z M 8.515625 -18.828125 "/></g></g></g><g clip-path="url(#b863a8dd71)"><path fill="#ffbe00" d="M 159.132812 195.101562 C 159.132812 193.589844 157.902344 192.367188 156.390625 192.367188 L 127.257812 192.367188 C 125.742188 192.367188 124.511719 193.589844 124.511719 195.101562 C 124.511719 196.609375 125.742188 197.832031 127.257812 197.832031 L 156.390625 197.832031 C 157.902344 197.832031 159.132812 196.609375 159.132812 195.101562 Z M 186.980469 181.632812 L 183.382812 190.835938 L 178.238281 182.390625 L 168.339844 181.824219 L 174.8125 174.34375 L 172.296875 164.789062 L 181.4375 168.609375 L 189.777344 163.269531 L 188.957031 173.113281 L 196.628906 179.367188 Z M 172.625 219.234375 C 171.324219 219.234375 170.269531 218.179688 170.269531 216.882812 C 170.269531 215.585938 171.324219 214.535156 172.625 214.535156 C 173.929688 214.535156 174.984375 215.585938 174.984375 216.882812 C 174.984375 218.179688 173.929688 219.234375 172.625 219.234375 Z M 144.953125 219.234375 C 143.648438 219.234375 142.59375 218.179688 142.59375 216.882812 C 142.59375 215.585938 143.648438 214.535156 144.953125 214.535156 C 146.253906 214.535156 147.308594 215.585938 147.308594 216.882812 C 147.308594 218.179688 146.253906 219.234375 144.953125 219.234375 Z M 202.796875 159.148438 L 132.992188 159.148438 C 132.132812 157.996094 131.984375 157.800781 131.125 156.648438 C 131.566406 154.984375 129.988281 153.867188 128.625 153.867188 L 93.152344 153.867188 C 89.613281 153.867188 89.621094 159.332031 93.152344 159.332031 L 121.53125 159.332031 C 117.707031 160.222656 115.371094 164.285156 116.675781 168.074219 L 124.574219 168.074219 C 126.8125 168.074219 128.609375 169.996094 128.394531 172.269531 C 128.207031 174.253906 126.457031 175.726562 124.460938 175.726562 L 123.574219 175.726562 C 122.109375 175.726562 121.152344 177.261719 121.800781 178.574219 C 122.132812 179.246094 122.820312 179.675781 123.574219 179.675781 L 144.566406 179.675781 C 146.804688 179.675781 148.605469 181.59375 148.386719 183.867188 C 148.203125 185.851562 146.453125 187.324219 144.453125 187.324219 L 129.304688 187.324219 C 127.839844 187.324219 126.878906 188.859375 127.527344 190.171875 C 127.863281 190.847656 128.550781 191.273438 129.304688 191.273438 L 156.277344 191.273438 C 158.277344 191.273438 160.023438 192.75 160.210938 194.730469 C 160.425781 197.003906 158.628906 198.925781 156.390625 198.925781 L 131.851562 198.925781 L 133.378906 202.011719 C 134.519531 204.324219 136.878906 205.789062 139.464844 205.789062 L 178.902344 205.789062 C 179.003906 205.789062 179.105469 205.78125 179.203125 205.777344 C 178.273438 207.714844 176.289062 209.066406 174 209.066406 L 138.5 209.066406 C 137.28125 209.066406 136.296875 210.070312 136.335938 211.289062 C 136.371094 212.46875 137.40625 213.378906 138.589844 213.378906 L 141.753906 213.378906 C 140.796875 214.246094 140.191406 215.496094 140.191406 216.882812 C 140.191406 219.679688 142.621094 221.910156 145.488281 221.597656 C 147.675781 221.359375 149.445312 219.589844 149.683594 217.410156 C 149.855469 215.808594 149.226562 214.355469 148.148438 213.378906 L 169.429688 213.378906 C 168.472656 214.246094 167.867188 215.496094 167.867188 216.882812 C 167.867188 219.566406 170.105469 221.730469 172.820312 221.621094 C 175.296875 221.523438 177.328125 219.460938 177.382812 216.996094 C 177.417969 215.484375 176.742188 214.128906 175.667969 213.238281 C 180.429688 212.445312 184.070312 208.328125 184.097656 203.371094 C 184.207031 203.242188 184.3125 203.113281 184.414062 202.972656 L 208.304688 169.855469 C 211.53125 165.382812 208.324219 159.148438 202.796875 159.148438 Z M 147.308594 183.585938 C 147.355469 182.035156 146.109375 180.765625 144.566406 180.765625 L 121.492188 180.765625 C 119.976562 180.765625 118.75 181.992188 118.75 183.5 C 118.75 185.007812 119.976562 186.234375 121.492188 186.234375 L 144.453125 186.234375 C 145.953125 186.234375 147.261719 185.078125 147.308594 183.585938 Z M 114.726562 183.5 C 114.726562 181.992188 113.5 180.765625 111.984375 180.765625 L 102.992188 180.765625 C 99.457031 180.765625 99.464844 186.234375 102.992188 186.234375 L 111.984375 186.234375 C 113.5 186.234375 114.726562 185.007812 114.726562 183.5 Z M 95.164062 171.902344 C 95.164062 170.390625 93.933594 169.167969 92.417969 169.167969 L 76.328125 169.167969 C 72.792969 169.167969 72.796875 174.632812 76.328125 174.632812 L 92.417969 174.632812 C 93.933594 174.632812 95.164062 173.410156 95.164062 171.902344 Z M 117.746094 192.367188 L 91.824219 192.367188 C 88.289062 192.367188 88.296875 197.832031 91.824219 197.832031 L 117.746094 197.832031 C 119.261719 197.832031 120.492188 196.609375 120.492188 195.101562 C 120.492188 193.589844 119.261719 192.367188 117.746094 192.367188 Z M 124.457031 174.632812 C 125.960938 174.632812 127.269531 173.480469 127.316406 171.984375 C 127.359375 170.4375 126.117188 169.167969 124.574219 169.167969 L 101.929688 169.167969 C 100.414062 169.167969 99.183594 170.390625 99.183594 171.902344 C 99.183594 173.410156 100.414062 174.632812 101.929688 174.632812 L 124.457031 174.632812 " fill-opacity="1" fill-rule="nonzero"/></g><g clip-path="url(#3a5620891d)"><path fill="#ffbe00" d="M 166.902344 160.761719 L 196.785156 160.761719 L 196.785156 185.371094 L 166.902344 185.371094 Z M 166.902344 160.761719 " fill-opacity="1" fill-rule="nonzero"/></g><g clip-path="url(#42bc2e96d4)"><path fill="#ffbe00" d="M 166.902344 176.523438 L 186.238281 176.523438 L 186.238281 192.34375 L 166.902344 192.34375 Z M 166.902344 176.523438 " fill-opacity="1" fill-rule="nonzero"/></g><path fill="#ffffff" d="M 171.050781 176.007812 C 171.34375 175.875 171.597656 175.699219 171.820312 175.480469 C 172.039062 175.257812 172.214844 175 172.347656 174.707031 C 172.480469 174.414062 172.546875 174.097656 172.546875 173.761719 C 172.546875 173.421875 172.480469 173.109375 172.347656 172.816406 C 172.214844 172.519531 172.039062 172.261719 171.820312 172.042969 C 171.597656 171.824219 171.34375 171.648438 171.050781 171.515625 C 170.753906 171.382812 170.4375 171.316406 170.101562 171.316406 C 169.761719 171.316406 169.449219 171.382812 169.152344 171.515625 C 168.859375 171.648438 168.605469 171.824219 168.382812 172.042969 C 168.160156 172.261719 167.988281 172.519531 167.855469 172.816406 C 167.722656 173.109375 167.65625 173.421875 167.65625 173.761719 C 167.65625 174.097656 167.722656 174.414062 167.855469 174.707031 C 167.988281 175 168.160156 175.257812 168.382812 175.480469 C 168.605469 175.699219 168.859375 175.875 169.152344 176.007812 C 169.449219 176.140625 169.761719 176.207031 170.101562 176.207031 C 170.4375 176.207031 170.753906 176.140625 171.050781 176.007812 " fill-opacity="1" fill-rule="nonzero"/><path fill="#ffffff" d="M 180.671875 180.457031 C 180.453125 180.238281 180.195312 180.0625 179.902344 179.925781 C 179.609375 179.796875 179.292969 179.730469 178.953125 179.730469 C 178.617188 179.730469 178.300781 179.796875 178.007812 179.925781 C 177.714844 180.0625 177.457031 180.238281 177.238281 180.457031 C 177.015625 180.675781 176.839844 180.933594 176.707031 181.226562 C 176.578125 181.523438 176.507812 181.835938 176.507812 182.175781 C 176.507812 182.511719 176.578125 182.828125 176.707031 183.121094 C 176.839844 183.417969 177.015625 183.671875 177.238281 183.894531 C 177.457031 184.113281 177.714844 184.289062 178.007812 184.421875 C 178.300781 184.554688 178.617188 184.621094 178.953125 184.621094 C 179.292969 184.621094 179.609375 184.554688 179.902344 184.421875 C 180.195312 184.289062 180.453125 184.113281 180.671875 183.894531 C 180.890625 183.671875 181.070312 183.417969 181.199219 183.121094 C 181.332031 182.828125 181.402344 182.511719 181.402344 182.175781 C 181.402344 181.835938 181.332031 181.523438 181.199219 181.226562 C 181.070312 180.933594 180.890625 180.675781 180.671875 180.457031 " fill-opacity="1" fill-rule="nonzero"/><path fill="#ffffff" d="M 182.546875 183.71875 C 182.339844 184.1875 182.058594 184.597656 181.707031 184.949219 C 181.355469 185.300781 180.945312 185.582031 180.476562 185.789062 C 180.003906 185.992188 179.496094 186.09375 178.953125 186.09375 C 178.410156 186.09375 177.90625 185.992188 177.433594 185.789062 C 176.964844 185.582031 176.554688 185.300781 176.203125 184.949219 C 175.847656 184.597656 175.570312 184.1875 175.363281 183.71875 C 175.160156 183.246094 175.054688 182.742188 175.054688 182.195312 C 175.054688 181.652344 175.160156 181.148438 175.363281 180.675781 C 175.570312 180.207031 175.847656 179.796875 176.203125 179.445312 C 176.554688 179.09375 176.964844 178.8125 177.433594 178.605469 C 177.90625 178.402344 178.410156 178.300781 178.953125 178.300781 C 179.496094 178.300781 180.003906 178.402344 180.476562 178.605469 C 180.945312 178.8125 181.355469 179.09375 181.707031 179.445312 C 182.058594 179.796875 182.339844 180.207031 182.546875 180.675781 C 182.75 181.148438 182.855469 181.652344 182.855469 182.195312 C 182.855469 182.742188 182.75 183.246094 182.546875 183.71875 Z M 170.960938 185.808594 L 169.308594 185.808594 L 177.855469 170.082031 L 179.507812 170.082031 Z M 167.347656 176.535156 C 166.996094 176.183594 166.714844 175.773438 166.511719 175.300781 C 166.308594 174.832031 166.203125 174.328125 166.203125 173.785156 C 166.203125 173.242188 166.308594 172.734375 166.511719 172.261719 C 166.714844 171.792969 166.996094 171.382812 167.347656 171.03125 C 167.703125 170.679688 168.113281 170.398438 168.582031 170.195312 C 169.050781 169.988281 169.558594 169.886719 170.101562 169.886719 C 170.644531 169.886719 171.152344 169.988281 171.621094 170.195312 C 172.089844 170.398438 172.5 170.679688 172.855469 171.03125 C 173.207031 171.382812 173.484375 171.792969 173.691406 172.261719 C 173.898438 172.734375 174 173.242188 174 173.785156 C 174 174.328125 173.898438 174.832031 173.691406 175.300781 C 173.484375 175.773438 173.207031 176.183594 172.855469 176.535156 C 172.5 176.886719 172.089844 177.167969 171.621094 177.375 C 171.152344 177.578125 170.644531 177.679688 170.101562 177.679688 C 169.558594 177.679688 169.050781 177.578125 168.582031 177.375 C 168.113281 177.167969 167.703125 176.886719 167.347656 176.535156 Z M 190.628906 180.460938 L 192.300781 178.261719 L 190.675781 176.035156 L 191.667969 173.457031 L 189.472656 171.777344 L 189.695312 169.023438 L 187.121094 168.03125 L 186.558594 165.332031 L 183.808594 165.097656 L 182.507812 162.664062 L 179.804688 163.21875 L 177.867188 161.25 L 175.429688 162.546875 L 173.019531 161.199219 L 171.042969 163.125 L 168.351562 162.515625 L 167 164.925781 L 164.246094 165.097656 L 163.628906 167.789062 L 161.03125 168.726562 L 161.195312 171.484375 L 158.96875 173.117188 L 159.90625 175.714844 L 158.234375 177.910156 L 159.859375 180.140625 L 158.871094 182.71875 L 161.0625 184.398438 L 160.839844 187.148438 L 163.414062 188.144531 L 163.976562 190.84375 L 166.730469 191.074219 L 168.027344 193.511719 L 170.734375 192.960938 L 172.667969 194.925781 L 175.105469 193.628906 L 177.515625 194.976562 L 179.492188 193.046875 L 182.183594 193.65625 L 183.535156 191.25 L 186.289062 191.078125 L 186.90625 188.386719 L 189.503906 187.445312 L 189.339844 184.691406 L 191.566406 183.058594 L 190.628906 180.460938 " fill-opacity="1" fill-rule="nonzero"/></svg>