<svg xmlns="http://www.w3.org/2000/svg" xmlns:xlink="http://www.w3.org/1999/xlink" width="117" zoomAndPan="magnify" viewBox="0 0 87.75 54" height="72" preserveAspectRatio="xMidYMid meet" version="1.0"><defs><g/><clipPath id="fbc09e009a"><path d="M 0.675781 0 L 86.828125 0 L 86.828125 53.019531 L 0.675781 53.019531 Z M 0.675781 0 " clip-rule="nonzero"/></clipPath><clipPath id="b578247804"><path d="M 1 13.839844 L 52.9375 13.839844 L 52.9375 39.546875 L 1 39.546875 Z M 1 13.839844 " clip-rule="nonzero"/></clipPath><clipPath id="f731a22ab4"><path d="M 36.117188 16.476562 L 47.183594 16.476562 L 47.183594 25.445312 L 36.117188 25.445312 Z M 36.117188 16.476562 " clip-rule="nonzero"/></clipPath><clipPath id="fb75982c8e"><path d="M 36.117188 22.410156 L 43.148438 22.410156 L 43.148438 28.476562 L 36.117188 28.476562 Z M 36.117188 22.410156 " clip-rule="nonzero"/></clipPath></defs><g clip-path="url(#fbc09e009a)"><path fill="#ffffff" d="M 0.675781 0 L 87.074219 0 L 87.074219 113.722656 L 0.675781 113.722656 Z M 0.675781 0 " fill-opacity="1" fill-rule="nonzero"/><path fill="#ffffff" d="M 0.675781 0 L 87.074219 0 L 87.074219 53.167969 L 0.675781 53.167969 Z M 0.675781 0 " fill-opacity="1" fill-rule="nonzero"/><path fill="#ffffff" d="M 0.675781 0 L 87.074219 0 L 87.074219 53.167969 L 0.675781 53.167969 Z M 0.675781 0 " fill-opacity="1" fill-rule="nonzero"/></g><g fill="#000000" fill-opacity="1"><g transform="translate(44.255425, 36.915521)"><g><path d="M 3.9375 0.140625 C 3.46875 0.140625 3.023438 0.0625 2.609375 -0.09375 C 2.203125 -0.257812 1.84375 -0.5 1.53125 -0.8125 C 1.21875 -1.132812 0.96875 -1.53125 0.78125 -2 C 0.601562 -2.46875 0.515625 -3.007812 0.515625 -3.625 C 0.515625 -4.238281 0.609375 -4.785156 0.796875 -5.265625 C 0.984375 -5.742188 1.234375 -6.144531 1.546875 -6.46875 C 1.867188 -6.800781 2.238281 -7.050781 2.65625 -7.21875 C 3.082031 -7.394531 3.53125 -7.484375 4 -7.484375 C 4.46875 -7.484375 4.890625 -7.390625 5.265625 -7.203125 C 5.640625 -7.015625 5.953125 -6.789062 6.203125 -6.53125 L 5.328125 -5.46875 C 5.140625 -5.644531 4.941406 -5.785156 4.734375 -5.890625 C 4.523438 -6.003906 4.289062 -6.0625 4.03125 -6.0625 C 3.78125 -6.0625 3.539062 -6.003906 3.3125 -5.890625 C 3.09375 -5.785156 2.898438 -5.628906 2.734375 -5.421875 C 2.578125 -5.222656 2.453125 -4.972656 2.359375 -4.671875 C 2.265625 -4.378906 2.21875 -4.050781 2.21875 -3.6875 C 2.21875 -2.925781 2.378906 -2.335938 2.703125 -1.921875 C 3.023438 -1.503906 3.457031 -1.296875 4 -1.296875 C 4.300781 -1.296875 4.570312 -1.359375 4.8125 -1.484375 C 5.050781 -1.617188 5.257812 -1.785156 5.4375 -1.984375 L 6.3125 -0.953125 C 5.695312 -0.222656 4.90625 0.140625 3.9375 0.140625 Z M 3.9375 0.140625 "/></g></g></g><g fill="#000000" fill-opacity="1"><g transform="translate(50.82173, 36.915521)"><g><path d="M 2.59375 -3.71875 L 2.421875 -3.046875 L 3.984375 -3.046875 L 3.8125 -3.71875 C 3.707031 -4.09375 3.601562 -4.484375 3.5 -4.890625 C 3.40625 -5.304688 3.3125 -5.707031 3.21875 -6.09375 L 3.171875 -6.09375 C 3.078125 -5.695312 2.984375 -5.296875 2.890625 -4.890625 C 2.796875 -4.484375 2.695312 -4.09375 2.59375 -3.71875 Z M -0.0625 0 L 2.234375 -7.359375 L 4.234375 -7.359375 L 6.53125 0 L 4.765625 0 L 4.328125 -1.75 L 2.078125 -1.75 L 1.625 0 Z M -0.0625 0 "/></g></g></g><g fill="#000000" fill-opacity="1"><g transform="translate(57.286495, 36.915521)"><g><path d="M 3.109375 0.140625 C 2.628906 0.140625 2.148438 0.0507812 1.671875 -0.125 C 1.191406 -0.300781 0.765625 -0.566406 0.390625 -0.921875 L 1.34375 -2.0625 C 1.601562 -1.832031 1.894531 -1.644531 2.21875 -1.5 C 2.539062 -1.363281 2.851562 -1.296875 3.15625 -1.296875 C 3.5 -1.296875 3.753906 -1.359375 3.921875 -1.484375 C 4.097656 -1.617188 4.1875 -1.796875 4.1875 -2.015625 C 4.1875 -2.117188 4.160156 -2.210938 4.109375 -2.296875 C 4.054688 -2.378906 3.984375 -2.453125 3.890625 -2.515625 C 3.796875 -2.585938 3.679688 -2.648438 3.546875 -2.703125 C 3.421875 -2.753906 3.28125 -2.816406 3.125 -2.890625 L 2.171875 -3.296875 C 1.984375 -3.367188 1.800781 -3.460938 1.625 -3.578125 C 1.445312 -3.703125 1.285156 -3.84375 1.140625 -4 C 1.003906 -4.164062 0.894531 -4.351562 0.8125 -4.5625 C 0.726562 -4.78125 0.6875 -5.023438 0.6875 -5.296875 C 0.6875 -5.597656 0.75 -5.878906 0.875 -6.140625 C 1.007812 -6.410156 1.191406 -6.644531 1.421875 -6.84375 C 1.648438 -7.050781 1.925781 -7.207031 2.25 -7.3125 C 2.570312 -7.425781 2.925781 -7.484375 3.3125 -7.484375 C 3.738281 -7.484375 4.160156 -7.398438 4.578125 -7.234375 C 4.992188 -7.078125 5.359375 -6.835938 5.671875 -6.515625 L 4.828125 -5.46875 C 4.585938 -5.65625 4.347656 -5.800781 4.109375 -5.90625 C 3.867188 -6.007812 3.601562 -6.0625 3.3125 -6.0625 C 3.019531 -6.0625 2.789062 -6 2.625 -5.875 C 2.457031 -5.757812 2.375 -5.597656 2.375 -5.390625 C 2.375 -5.273438 2.398438 -5.175781 2.453125 -5.09375 C 2.503906 -5.019531 2.582031 -4.953125 2.6875 -4.890625 C 2.789062 -4.828125 2.910156 -4.765625 3.046875 -4.703125 C 3.179688 -4.648438 3.328125 -4.59375 3.484375 -4.53125 L 4.4375 -4.140625 C 4.882812 -3.960938 5.238281 -3.710938 5.5 -3.390625 C 5.757812 -3.078125 5.890625 -2.660156 5.890625 -2.140625 C 5.890625 -1.835938 5.828125 -1.546875 5.703125 -1.265625 C 5.578125 -0.992188 5.394531 -0.753906 5.15625 -0.546875 C 4.925781 -0.335938 4.632812 -0.171875 4.28125 -0.046875 C 3.9375 0.078125 3.546875 0.140625 3.109375 0.140625 Z M 3.109375 0.140625 "/></g></g></g><g fill="#000000" fill-opacity="1"><g transform="translate(63.55946, 36.915521)"><g><path d="M 0.875 0 L 0.875 -7.359375 L 2.53125 -7.359375 L 2.53125 -4.53125 L 5.0625 -4.53125 L 5.0625 -7.359375 L 6.734375 -7.359375 L 6.734375 0 L 5.0625 0 L 5.0625 -3.0625 L 2.53125 -3.0625 L 2.53125 0 Z M 0.875 0 "/></g></g></g><g fill="#ffbe00" fill-opacity="1"><g transform="translate(53.399581, 23.792358)"><g><path d="M 3.96875 0.171875 C 3.445312 0.171875 2.992188 0.09375 2.609375 -0.0625 C 2.222656 -0.226562 1.90625 -0.453125 1.65625 -0.734375 C 1.414062 -1.015625 1.234375 -1.347656 1.109375 -1.734375 C 0.992188 -2.117188 0.9375 -2.53125 0.9375 -2.96875 L 0.9375 -7.984375 L 2.046875 -7.984375 L 2.046875 -3.109375 C 2.046875 -2.304688 2.222656 -1.722656 2.578125 -1.359375 C 2.929688 -0.992188 3.394531 -0.8125 3.96875 -0.8125 C 4.25 -0.8125 4.503906 -0.851562 4.734375 -0.9375 C 4.972656 -1.03125 5.175781 -1.171875 5.34375 -1.359375 C 5.519531 -1.546875 5.648438 -1.78125 5.734375 -2.0625 C 5.828125 -2.351562 5.875 -2.703125 5.875 -3.109375 L 5.875 -7.984375 L 7 -7.984375 L 7 -2.96875 C 7 -2.53125 6.9375 -2.117188 6.8125 -1.734375 C 6.695312 -1.347656 6.515625 -1.015625 6.265625 -0.734375 C 6.015625 -0.453125 5.695312 -0.226562 5.3125 -0.0625 C 4.9375 0.09375 4.488281 0.171875 3.96875 0.171875 Z M 3.96875 0.171875 "/></g></g></g><g fill="#ffbe00" fill-opacity="1"><g transform="translate(63.490541, 23.792358)"><g><path d="M 3.109375 -8.078125 C 4.234375 -8.078125 5.097656 -7.863281 5.703125 -7.4375 C 6.304688 -7.007812 6.609375 -6.375 6.609375 -5.53125 C 6.609375 -5.0625 6.523438 -4.660156 6.359375 -4.328125 C 6.191406 -4.003906 5.953125 -3.738281 5.640625 -3.53125 C 5.328125 -3.332031 4.945312 -3.1875 4.5 -3.09375 C 4.0625 -3.007812 3.5625 -2.96875 3 -2.96875 L 2.109375 -2.96875 L 2.109375 0 L 0.984375 0 L 0.984375 -7.875 C 1.304688 -7.945312 1.660156 -8 2.046875 -8.03125 C 2.429688 -8.0625 2.785156 -8.078125 3.109375 -8.078125 Z M 3.203125 -7.09375 C 2.722656 -7.09375 2.359375 -7.082031 2.109375 -7.0625 L 2.109375 -3.921875 L 2.953125 -3.921875 C 3.335938 -3.921875 3.679688 -3.945312 3.984375 -4 C 4.296875 -4.050781 4.554688 -4.132812 4.765625 -4.25 C 4.972656 -4.363281 5.132812 -4.523438 5.25 -4.734375 C 5.375 -4.941406 5.4375 -5.207031 5.4375 -5.53125 C 5.4375 -5.84375 5.375 -6.097656 5.25 -6.296875 C 5.132812 -6.492188 4.972656 -6.648438 4.765625 -6.765625 C 4.566406 -6.890625 4.332031 -6.972656 4.0625 -7.015625 C 3.789062 -7.066406 3.503906 -7.09375 3.203125 -7.09375 Z M 3.203125 -7.09375 "/></g></g></g><g clip-path="url(#b578247804)"><path fill="#ffbe00" d="M 33.191406 29.410156 C 33.191406 28.839844 32.726562 28.378906 32.15625 28.378906 L 21.183594 28.378906 C 20.613281 28.378906 20.148438 28.839844 20.148438 29.410156 C 20.148438 29.976562 20.613281 30.4375 21.183594 30.4375 L 32.15625 30.4375 C 32.726562 30.4375 33.191406 29.976562 33.191406 29.410156 Z M 43.679688 24.335938 L 42.324219 27.800781 L 40.386719 24.621094 L 36.660156 24.40625 L 39.097656 21.589844 L 38.148438 17.992188 L 41.589844 19.429688 L 44.734375 17.421875 L 44.421875 21.128906 L 47.3125 23.484375 Z M 38.273438 38.5 C 37.78125 38.5 37.382812 38.101562 37.382812 37.613281 C 37.382812 37.125 37.78125 36.730469 38.273438 36.730469 C 38.761719 36.730469 39.160156 37.125 39.160156 37.613281 C 39.160156 38.101562 38.761719 38.5 38.273438 38.5 Z M 27.847656 38.5 C 27.359375 38.5 26.960938 38.101562 26.960938 37.613281 C 26.960938 37.125 27.359375 36.730469 27.847656 36.730469 C 28.339844 36.730469 28.738281 37.125 28.738281 37.613281 C 28.738281 38.101562 28.339844 38.5 27.847656 38.5 Z M 49.636719 15.867188 L 23.34375 15.867188 C 23.019531 15.433594 22.964844 15.359375 22.640625 14.925781 C 22.804688 14.296875 22.210938 13.878906 21.699219 13.878906 L 8.335938 13.878906 C 7.003906 13.878906 7.007812 15.9375 8.335938 15.9375 L 19.027344 15.9375 C 17.585938 16.273438 16.707031 17.800781 17.199219 19.230469 L 20.171875 19.230469 C 21.015625 19.230469 21.691406 19.953125 21.613281 20.808594 C 21.542969 21.554688 20.882812 22.113281 20.128906 22.113281 L 19.796875 22.113281 C 19.246094 22.113281 18.882812 22.6875 19.128906 23.183594 C 19.253906 23.4375 19.511719 23.597656 19.796875 23.597656 L 27.703125 23.597656 C 28.546875 23.597656 29.222656 24.320312 29.144531 25.179688 C 29.074219 25.925781 28.414062 26.480469 27.660156 26.480469 L 21.957031 26.480469 C 21.402344 26.480469 21.042969 27.058594 21.285156 27.550781 C 21.410156 27.804688 21.671875 27.96875 21.957031 27.96875 L 32.113281 27.96875 C 32.867188 27.96875 33.527344 28.523438 33.597656 29.269531 C 33.675781 30.125 33 30.851562 32.15625 30.851562 L 22.914062 30.851562 L 23.488281 32.011719 C 23.917969 32.882812 24.808594 33.433594 25.78125 33.433594 L 40.636719 33.433594 C 40.675781 33.433594 40.710938 33.433594 40.75 33.429688 C 40.398438 34.160156 39.652344 34.667969 38.789062 34.667969 L 25.417969 34.667969 C 24.960938 34.667969 24.589844 35.046875 24.601562 35.507812 C 24.617188 35.953125 25.003906 36.292969 25.453125 36.292969 L 26.644531 36.292969 C 26.285156 36.621094 26.054688 37.089844 26.054688 37.613281 C 26.054688 38.667969 26.96875 39.507812 28.050781 39.390625 C 28.875 39.300781 29.542969 38.632812 29.628906 37.8125 C 29.695312 37.210938 29.457031 36.660156 29.054688 36.292969 L 37.066406 36.292969 C 36.707031 36.621094 36.480469 37.089844 36.480469 37.613281 C 36.480469 38.625 37.324219 39.4375 38.347656 39.398438 C 39.277344 39.363281 40.042969 38.585938 40.066406 37.65625 C 40.078125 37.085938 39.824219 36.578125 39.417969 36.242188 C 41.210938 35.941406 42.582031 34.390625 42.59375 32.523438 C 42.632812 32.476562 42.675781 32.425781 42.710938 32.375 L 51.710938 19.898438 C 52.925781 18.214844 51.71875 15.867188 49.636719 15.867188 Z M 28.734375 25.070312 C 28.753906 24.488281 28.285156 24.011719 27.703125 24.011719 L 19.011719 24.011719 C 18.441406 24.011719 17.980469 24.472656 17.980469 25.039062 C 17.980469 25.609375 18.441406 26.070312 19.011719 26.070312 L 27.660156 26.070312 C 28.226562 26.070312 28.71875 25.632812 28.734375 25.070312 Z M 16.464844 25.039062 C 16.464844 24.472656 16 24.011719 15.429688 24.011719 L 12.042969 24.011719 C 10.710938 24.011719 10.714844 26.070312 12.042969 26.070312 L 15.429688 26.070312 C 16 26.070312 16.464844 25.609375 16.464844 25.039062 Z M 9.09375 20.671875 C 9.09375 20.101562 8.632812 19.640625 8.0625 19.640625 L 2 19.640625 C 0.667969 19.640625 0.671875 21.699219 2 21.699219 L 8.0625 21.699219 C 8.632812 21.699219 9.09375 21.238281 9.09375 20.671875 Z M 17.601562 28.378906 L 7.835938 28.378906 C 6.503906 28.378906 6.507812 30.4375 7.835938 30.4375 L 17.601562 30.4375 C 18.171875 30.4375 18.636719 29.976562 18.636719 29.410156 C 18.636719 28.839844 18.171875 28.378906 17.601562 28.378906 Z M 20.128906 21.699219 C 20.695312 21.699219 21.1875 21.265625 21.207031 20.703125 C 21.222656 20.121094 20.753906 19.640625 20.171875 19.640625 L 11.644531 19.640625 C 11.070312 19.640625 10.609375 20.101562 10.609375 20.671875 C 10.609375 21.238281 11.070312 21.699219 11.644531 21.699219 L 20.128906 21.699219 " fill-opacity="1" fill-rule="nonzero"/></g><g clip-path="url(#f731a22ab4)"><path fill="#ffbe00" d="M 36.117188 16.476562 L 47.371094 16.476562 L 47.371094 25.746094 L 36.117188 25.746094 Z M 36.117188 16.476562 " fill-opacity="1" fill-rule="nonzero"/></g><g clip-path="url(#fb75982c8e)"><path fill="#ffbe00" d="M 36.117188 22.410156 L 43.398438 22.410156 L 43.398438 28.371094 L 36.117188 28.371094 Z M 36.117188 22.410156 " fill-opacity="1" fill-rule="nonzero"/></g><path fill="#ffffff" d="M 37.679688 22.21875 C 37.789062 22.167969 37.886719 22.101562 37.96875 22.019531 C 38.050781 21.9375 38.117188 21.839844 38.167969 21.726562 C 38.21875 21.617188 38.242188 21.5 38.242188 21.371094 C 38.242188 21.242188 38.21875 21.125 38.167969 21.015625 C 38.117188 20.902344 38.050781 20.808594 37.96875 20.722656 C 37.886719 20.640625 37.789062 20.574219 37.679688 20.523438 C 37.566406 20.476562 37.449219 20.449219 37.320312 20.449219 C 37.195312 20.449219 37.074219 20.476562 36.964844 20.523438 C 36.855469 20.574219 36.757812 20.640625 36.675781 20.722656 C 36.589844 20.808594 36.523438 20.902344 36.476562 21.015625 C 36.425781 21.125 36.398438 21.242188 36.398438 21.371094 C 36.398438 21.5 36.425781 21.617188 36.476562 21.726562 C 36.523438 21.839844 36.589844 21.9375 36.675781 22.019531 C 36.757812 22.101562 36.855469 22.167969 36.964844 22.21875 C 37.074219 22.265625 37.195312 22.292969 37.320312 22.292969 C 37.449219 22.292969 37.566406 22.265625 37.679688 22.21875 " fill-opacity="1" fill-rule="nonzero"/><path fill="#ffffff" d="M 41.304688 23.894531 C 41.21875 23.808594 41.125 23.742188 41.011719 23.695312 C 40.902344 23.644531 40.785156 23.621094 40.65625 23.621094 C 40.527344 23.621094 40.410156 23.644531 40.300781 23.695312 C 40.1875 23.742188 40.09375 23.808594 40.007812 23.894531 C 39.925781 23.976562 39.859375 24.074219 39.808594 24.183594 C 39.761719 24.292969 39.734375 24.414062 39.734375 24.539062 C 39.734375 24.667969 39.761719 24.785156 39.808594 24.898438 C 39.859375 25.007812 39.925781 25.105469 40.007812 25.1875 C 40.09375 25.269531 40.1875 25.335938 40.300781 25.386719 C 40.410156 25.4375 40.527344 25.460938 40.65625 25.460938 C 40.785156 25.460938 40.902344 25.4375 41.011719 25.386719 C 41.125 25.335938 41.21875 25.269531 41.304688 25.1875 C 41.386719 25.105469 41.453125 25.007812 41.503906 24.898438 C 41.550781 24.785156 41.578125 24.667969 41.578125 24.539062 C 41.578125 24.414062 41.550781 24.292969 41.503906 24.183594 C 41.453125 24.074219 41.386719 23.976562 41.304688 23.894531 " fill-opacity="1" fill-rule="nonzero"/><path fill="#ffffff" d="M 42.007812 25.121094 C 41.929688 25.296875 41.824219 25.453125 41.691406 25.585938 C 41.558594 25.71875 41.40625 25.824219 41.230469 25.902344 C 41.050781 25.980469 40.859375 26.015625 40.65625 26.015625 C 40.449219 26.015625 40.261719 25.980469 40.085938 25.902344 C 39.90625 25.824219 39.753906 25.71875 39.621094 25.585938 C 39.488281 25.453125 39.382812 25.296875 39.304688 25.121094 C 39.226562 24.945312 39.1875 24.753906 39.1875 24.546875 C 39.1875 24.34375 39.226562 24.152344 39.304688 23.976562 C 39.382812 23.800781 39.488281 23.644531 39.621094 23.511719 C 39.753906 23.378906 39.90625 23.273438 40.085938 23.195312 C 40.261719 23.117188 40.449219 23.082031 40.65625 23.082031 C 40.859375 23.082031 41.050781 23.117188 41.230469 23.195312 C 41.40625 23.273438 41.558594 23.378906 41.691406 23.511719 C 41.824219 23.644531 41.929688 23.800781 42.007812 23.976562 C 42.085938 24.152344 42.125 24.34375 42.125 24.546875 C 42.125 24.753906 42.085938 24.945312 42.007812 25.121094 Z M 37.644531 25.910156 L 37.023438 25.910156 L 40.242188 19.984375 L 40.863281 19.984375 Z M 36.285156 22.417969 C 36.152344 22.285156 36.046875 22.128906 35.96875 21.953125 C 35.890625 21.773438 35.851562 21.585938 35.851562 21.378906 C 35.851562 21.175781 35.890625 20.984375 35.96875 20.808594 C 36.046875 20.628906 36.152344 20.476562 36.285156 20.34375 C 36.417969 20.210938 36.570312 20.105469 36.75 20.027344 C 36.925781 19.949219 37.117188 19.910156 37.320312 19.910156 C 37.527344 19.910156 37.71875 19.949219 37.894531 20.027344 C 38.070312 20.105469 38.226562 20.210938 38.359375 20.34375 C 38.492188 20.476562 38.597656 20.628906 38.671875 20.808594 C 38.75 20.984375 38.789062 21.175781 38.789062 21.378906 C 38.789062 21.585938 38.75 21.773438 38.671875 21.953125 C 38.597656 22.128906 38.492188 22.285156 38.359375 22.417969 C 38.226562 22.550781 38.070312 22.65625 37.894531 22.730469 C 37.71875 22.808594 37.527344 22.847656 37.320312 22.847656 C 37.117188 22.847656 36.925781 22.808594 36.75 22.730469 C 36.570312 22.65625 36.417969 22.550781 36.285156 22.417969 Z M 45.054688 23.894531 L 45.683594 23.066406 L 45.070312 22.226562 L 45.445312 21.257812 L 44.617188 20.625 L 44.703125 19.585938 L 43.730469 19.214844 L 43.519531 18.195312 L 42.484375 18.109375 L 41.996094 17.191406 L 40.976562 17.398438 L 40.246094 16.660156 L 39.328125 17.148438 L 38.421875 16.640625 L 37.675781 17.367188 L 36.664062 17.136719 L 36.152344 18.042969 L 35.117188 18.109375 L 34.882812 19.121094 L 33.90625 19.476562 L 33.96875 20.511719 L 33.128906 21.128906 L 33.480469 22.105469 L 32.851562 22.933594 L 33.464844 23.773438 L 33.089844 24.746094 L 33.917969 25.378906 L 33.832031 26.414062 L 34.804688 26.789062 L 35.015625 27.804688 L 36.050781 27.894531 L 36.539062 28.8125 L 37.558594 28.601562 L 38.289062 29.34375 L 39.207031 28.855469 L 40.113281 29.363281 L 40.859375 28.636719 L 41.875 28.867188 L 42.382812 27.960938 L 43.417969 27.894531 L 43.652344 26.878906 L 44.628906 26.527344 L 44.566406 25.488281 L 45.40625 24.871094 L 45.054688 23.894531 " fill-opacity="1" fill-rule="nonzero"/></svg>