<svg xmlns="http://www.w3.org/2000/svg" xmlns:xlink="http://www.w3.org/1999/xlink" width="117" zoomAndPan="magnify" viewBox="0 0 87.75 54" height="72" preserveAspectRatio="xMidYMid meet" version="1.0"><defs><g/><clipPath id="73c739e4de"><path d="M 0.675781 0 L 86.828125 0 L 86.828125 53.019531 L 0.675781 53.019531 Z M 0.675781 0 " clip-rule="nonzero"/></clipPath><clipPath id="415f17251c"><path d="M 1 13.878906 L 52.9375 13.878906 L 52.9375 39.585938 L 1 39.585938 Z M 1 13.878906 " clip-rule="nonzero"/></clipPath><clipPath id="f4ac90899b"><path d="M 36.117188 16.511719 L 47.183594 16.511719 L 47.183594 25.480469 L 36.117188 25.480469 Z M 36.117188 16.511719 " clip-rule="nonzero"/></clipPath><clipPath id="7e0e0e8fc0"><path d="M 36.117188 22.449219 L 43.148438 22.449219 L 43.148438 28.515625 L 36.117188 28.515625 Z M 36.117188 22.449219 " clip-rule="nonzero"/></clipPath></defs><g clip-path="url(#73c739e4de)"><path fill="#ffffff" d="M 0.675781 0 L 87.074219 0 L 87.074219 53.167969 L 0.675781 53.167969 Z M 0.675781 0 " fill-opacity="1" fill-rule="nonzero"/><path fill="#55298b" d="M 0.675781 0 L 87.074219 0 L 87.074219 53.167969 L 0.675781 53.167969 Z M 0.675781 0 " fill-opacity="1" fill-rule="nonzero"/></g><g fill="#ffffff" fill-opacity="1"><g transform="translate(44.250119, 36.86783)"><g><path d="M 3.9375 0.140625 C 3.46875 0.140625 3.023438 0.0625 2.609375 -0.09375 C 2.203125 -0.257812 1.84375 -0.5 1.53125 -0.8125 C 1.21875 -1.132812 0.96875 -1.53125 0.78125 -2 C 0.601562 -2.46875 0.515625 -3.007812 0.515625 -3.625 C 0.515625 -4.238281 0.609375 -4.785156 0.796875 -5.265625 C 0.984375 -5.742188 1.234375 -6.144531 1.546875 -6.46875 C 1.867188 -6.800781 2.238281 -7.050781 2.65625 -7.21875 C 3.082031 -7.394531 3.53125 -7.484375 4 -7.484375 C 4.46875 -7.484375 4.890625 -7.390625 5.265625 -7.203125 C 5.640625 -7.015625 5.953125 -6.789062 6.203125 -6.53125 L 5.328125 -5.46875 C 5.140625 -5.644531 4.941406 -5.785156 4.734375 -5.890625 C 4.523438 -6.003906 4.289062 -6.0625 4.03125 -6.0625 C 3.78125 -6.0625 3.539062 -6.003906 3.3125 -5.890625 C 3.09375 -5.785156 2.898438 -5.628906 2.734375 -5.421875 C 2.578125 -5.222656 2.453125 -4.972656 2.359375 -4.671875 C 2.265625 -4.378906 2.21875 -4.050781 2.21875 -3.6875 C 2.21875 -2.925781 2.378906 -2.335938 2.703125 -1.921875 C 3.023438 -1.503906 3.457031 -1.296875 4 -1.296875 C 4.300781 -1.296875 4.570312 -1.359375 4.8125 -1.484375 C 5.050781 -1.617188 5.257812 -1.785156 5.4375 -1.984375 L 6.3125 -0.953125 C 5.695312 -0.222656 4.90625 0.140625 3.9375 0.140625 Z M 3.9375 0.140625 "/></g></g></g><g fill="#ffffff" fill-opacity="1"><g transform="translate(50.818464, 36.86783)"><g><path d="M 2.59375 -3.71875 L 2.421875 -3.046875 L 3.984375 -3.046875 L 3.8125 -3.71875 C 3.707031 -4.09375 3.601562 -4.484375 3.5 -4.890625 C 3.40625 -5.304688 3.3125 -5.707031 3.21875 -6.09375 L 3.171875 -6.09375 C 3.078125 -5.695312 2.984375 -5.296875 2.890625 -4.890625 C 2.796875 -4.484375 2.695312 -4.09375 2.59375 -3.71875 Z M -0.0625 0 L 2.234375 -7.359375 L 4.234375 -7.359375 L 6.53125 0 L 4.765625 0 L 4.328125 -1.75 L 2.078125 -1.75 L 1.625 0 Z M -0.0625 0 "/></g></g></g><g fill="#ffffff" fill-opacity="1"><g transform="translate(57.285241, 36.86783)"><g><path d="M 3.109375 0.140625 C 2.628906 0.140625 2.148438 0.0507812 1.671875 -0.125 C 1.191406 -0.300781 0.765625 -0.566406 0.390625 -0.921875 L 1.34375 -2.0625 C 1.601562 -1.832031 1.894531 -1.644531 2.21875 -1.5 C 2.539062 -1.363281 2.851562 -1.296875 3.15625 -1.296875 C 3.5 -1.296875 3.753906 -1.359375 3.921875 -1.484375 C 4.097656 -1.617188 4.1875 -1.796875 4.1875 -2.015625 C 4.1875 -2.117188 4.160156 -2.210938 4.109375 -2.296875 C 4.054688 -2.378906 3.984375 -2.453125 3.890625 -2.515625 C 3.796875 -2.585938 3.679688 -2.648438 3.546875 -2.703125 C 3.421875 -2.753906 3.28125 -2.816406 3.125 -2.890625 L 2.171875 -3.296875 C 1.984375 -3.367188 1.800781 -3.460938 1.625 -3.578125 C 1.445312 -3.703125 1.285156 -3.84375 1.140625 -4 C 1.003906 -4.164062 0.894531 -4.351562 0.8125 -4.5625 C 0.726562 -4.78125 0.6875 -5.023438 0.6875 -5.296875 C 0.6875 -5.597656 0.75 -5.878906 0.875 -6.140625 C 1.007812 -6.410156 1.191406 -6.644531 1.421875 -6.84375 C 1.648438 -7.050781 1.925781 -7.207031 2.25 -7.3125 C 2.570312 -7.425781 2.925781 -7.484375 3.3125 -7.484375 C 3.738281 -7.484375 4.160156 -7.398438 4.578125 -7.234375 C 4.992188 -7.078125 5.359375 -6.835938 5.671875 -6.515625 L 4.828125 -5.46875 C 4.585938 -5.65625 4.347656 -5.800781 4.109375 -5.90625 C 3.867188 -6.007812 3.601562 -6.0625 3.3125 -6.0625 C 3.019531 -6.0625 2.789062 -6 2.625 -5.875 C 2.457031 -5.757812 2.375 -5.597656 2.375 -5.390625 C 2.375 -5.273438 2.398438 -5.175781 2.453125 -5.09375 C 2.503906 -5.019531 2.582031 -4.953125 2.6875 -4.890625 C 2.789062 -4.828125 2.910156 -4.765625 3.046875 -4.703125 C 3.179688 -4.648438 3.328125 -4.59375 3.484375 -4.53125 L 4.4375 -4.140625 C 4.882812 -3.960938 5.238281 -3.710938 5.5 -3.390625 C 5.757812 -3.078125 5.890625 -2.660156 5.890625 -2.140625 C 5.890625 -1.835938 5.828125 -1.546875 5.703125 -1.265625 C 5.578125 -0.992188 5.394531 -0.753906 5.15625 -0.546875 C 4.925781 -0.335938 4.632812 -0.171875 4.28125 -0.046875 C 3.9375 0.078125 3.546875 0.140625 3.109375 0.140625 Z M 3.109375 0.140625 "/></g></g></g><g fill="#ffffff" fill-opacity="1"><g transform="translate(63.560155, 36.86783)"><g><path d="M 0.875 0 L 0.875 -7.359375 L 2.53125 -7.359375 L 2.53125 -4.53125 L 5.0625 -4.53125 L 5.0625 -7.359375 L 6.734375 -7.359375 L 6.734375 0 L 5.0625 0 L 5.0625 -3.0625 L 2.53125 -3.0625 L 2.53125 0 Z M 0.875 0 "/></g></g></g><g fill="#ffbe00" fill-opacity="1"><g transform="translate(53.399581, 23.830755)"><g><path d="M 3.96875 0.171875 C 3.445312 0.171875 2.992188 0.09375 2.609375 -0.0625 C 2.222656 -0.226562 1.90625 -0.453125 1.65625 -0.734375 C 1.414062 -1.015625 1.234375 -1.347656 1.109375 -1.734375 C 0.992188 -2.117188 0.9375 -2.53125 0.9375 -2.96875 L 0.9375 -7.984375 L 2.046875 -7.984375 L 2.046875 -3.109375 C 2.046875 -2.304688 2.222656 -1.722656 2.578125 -1.359375 C 2.929688 -0.992188 3.394531 -0.8125 3.96875 -0.8125 C 4.25 -0.8125 4.503906 -0.851562 4.734375 -0.9375 C 4.972656 -1.03125 5.175781 -1.171875 5.34375 -1.359375 C 5.519531 -1.546875 5.648438 -1.78125 5.734375 -2.0625 C 5.828125 -2.351562 5.875 -2.703125 5.875 -3.109375 L 5.875 -7.984375 L 7 -7.984375 L 7 -2.96875 C 7 -2.53125 6.9375 -2.117188 6.8125 -1.734375 C 6.695312 -1.347656 6.515625 -1.015625 6.265625 -0.734375 C 6.015625 -0.453125 5.695312 -0.226562 5.3125 -0.0625 C 4.9375 0.09375 4.488281 0.171875 3.96875 0.171875 Z M 3.96875 0.171875 "/></g></g></g><g fill="#ffbe00" fill-opacity="1"><g transform="translate(63.490541, 23.830755)"><g><path d="M 3.109375 -8.078125 C 4.234375 -8.078125 5.097656 -7.863281 5.703125 -7.4375 C 6.304688 -7.007812 6.609375 -6.375 6.609375 -5.53125 C 6.609375 -5.0625 6.523438 -4.660156 6.359375 -4.328125 C 6.191406 -4.003906 5.953125 -3.738281 5.640625 -3.53125 C 5.328125 -3.332031 4.945312 -3.1875 4.5 -3.09375 C 4.0625 -3.007812 3.5625 -2.96875 3 -2.96875 L 2.109375 -2.96875 L 2.109375 0 L 0.984375 0 L 0.984375 -7.875 C 1.304688 -7.945312 1.660156 -8 2.046875 -8.03125 C 2.429688 -8.0625 2.785156 -8.078125 3.109375 -8.078125 Z M 3.203125 -7.09375 C 2.722656 -7.09375 2.359375 -7.082031 2.109375 -7.0625 L 2.109375 -3.921875 L 2.953125 -3.921875 C 3.335938 -3.921875 3.679688 -3.945312 3.984375 -4 C 4.296875 -4.050781 4.554688 -4.132812 4.765625 -4.25 C 4.972656 -4.363281 5.132812 -4.523438 5.25 -4.734375 C 5.375 -4.941406 5.4375 -5.207031 5.4375 -5.53125 C 5.4375 -5.84375 5.375 -6.097656 5.25 -6.296875 C 5.132812 -6.492188 4.972656 -6.648438 4.765625 -6.765625 C 4.566406 -6.890625 4.332031 -6.972656 4.0625 -7.015625 C 3.789062 -7.066406 3.503906 -7.09375 3.203125 -7.09375 Z M 3.203125 -7.09375 "/></g></g></g><g clip-path="url(#415f17251c)"><path fill="#ffbe00" d="M 33.191406 29.445312 C 33.191406 28.878906 32.726562 28.417969 32.15625 28.417969 L 21.183594 28.417969 C 20.613281 28.417969 20.148438 28.878906 20.148438 29.445312 C 20.148438 30.015625 20.613281 30.476562 21.183594 30.476562 L 32.15625 30.476562 C 32.726562 30.476562 33.191406 30.015625 33.191406 29.445312 Z M 43.679688 24.375 L 42.324219 27.839844 L 40.386719 24.660156 L 36.660156 24.445312 L 39.097656 21.628906 L 38.148438 18.03125 L 41.589844 19.46875 L 44.734375 17.457031 L 44.421875 21.167969 L 47.3125 23.523438 Z M 38.273438 38.539062 C 37.78125 38.539062 37.382812 38.140625 37.382812 37.652344 C 37.382812 37.164062 37.78125 36.769531 38.273438 36.769531 C 38.761719 36.769531 39.160156 37.164062 39.160156 37.652344 C 39.160156 38.140625 38.761719 38.539062 38.273438 38.539062 Z M 27.847656 38.539062 C 27.359375 38.539062 26.960938 38.140625 26.960938 37.652344 C 26.960938 37.164062 27.359375 36.769531 27.847656 36.769531 C 28.339844 36.769531 28.738281 37.164062 28.738281 37.652344 C 28.738281 38.140625 28.339844 38.539062 27.847656 38.539062 Z M 49.636719 15.90625 L 23.34375 15.90625 C 23.019531 15.472656 22.964844 15.398438 22.640625 14.964844 C 22.804688 14.335938 22.210938 13.914062 21.699219 13.914062 L 8.335938 13.914062 C 7.003906 13.914062 7.007812 15.972656 8.335938 15.972656 L 19.027344 15.972656 C 17.585938 16.308594 16.707031 17.839844 17.199219 19.269531 L 20.171875 19.269531 C 21.015625 19.269531 21.691406 19.992188 21.613281 20.847656 C 21.542969 21.59375 20.882812 22.148438 20.128906 22.148438 L 19.796875 22.148438 C 19.246094 22.148438 18.882812 22.726562 19.128906 23.222656 C 19.253906 23.476562 19.511719 23.636719 19.796875 23.636719 L 27.703125 23.636719 C 28.546875 23.636719 29.222656 24.359375 29.144531 25.21875 C 29.074219 25.964844 28.414062 26.519531 27.660156 26.519531 L 21.957031 26.519531 C 21.402344 26.519531 21.042969 27.097656 21.285156 27.589844 C 21.410156 27.84375 21.671875 28.007812 21.957031 28.007812 L 32.113281 28.007812 C 32.867188 28.007812 33.527344 28.5625 33.597656 29.308594 C 33.675781 30.164062 33 30.886719 32.15625 30.886719 L 22.914062 30.886719 L 23.488281 32.050781 C 23.917969 32.921875 24.808594 33.472656 25.78125 33.472656 L 40.636719 33.472656 C 40.675781 33.472656 40.710938 33.472656 40.75 33.46875 C 40.398438 34.199219 39.652344 34.707031 38.789062 34.707031 L 25.417969 34.707031 C 24.960938 34.707031 24.589844 35.085938 24.601562 35.546875 C 24.617188 35.988281 25.003906 36.332031 25.453125 36.332031 L 26.644531 36.332031 C 26.285156 36.660156 26.054688 37.128906 26.054688 37.652344 C 26.054688 38.707031 26.96875 39.546875 28.050781 39.425781 C 28.875 39.335938 29.542969 38.671875 29.628906 37.851562 C 29.695312 37.25 29.457031 36.699219 29.054688 36.332031 L 37.066406 36.332031 C 36.707031 36.660156 36.480469 37.128906 36.480469 37.652344 C 36.480469 38.664062 37.324219 39.476562 38.347656 39.4375 C 39.277344 39.398438 40.042969 38.625 40.066406 37.695312 C 40.078125 37.125 39.824219 36.617188 39.417969 36.28125 C 41.210938 35.980469 42.582031 34.429688 42.59375 32.5625 C 42.632812 32.515625 42.675781 32.464844 42.710938 32.414062 L 51.710938 19.9375 C 52.925781 18.253906 51.71875 15.90625 49.636719 15.90625 Z M 28.734375 25.109375 C 28.753906 24.527344 28.285156 24.046875 27.703125 24.046875 L 19.011719 24.046875 C 18.441406 24.046875 17.980469 24.507812 17.980469 25.078125 C 17.980469 25.644531 18.441406 26.105469 19.011719 26.105469 L 27.660156 26.105469 C 28.226562 26.105469 28.71875 25.671875 28.734375 25.109375 Z M 16.464844 25.078125 C 16.464844 24.507812 16 24.046875 15.429688 24.046875 L 12.042969 24.046875 C 10.710938 24.046875 10.714844 26.105469 12.042969 26.105469 L 15.429688 26.105469 C 16 26.105469 16.464844 25.644531 16.464844 25.078125 Z M 9.09375 20.710938 C 9.09375 20.140625 8.632812 19.679688 8.0625 19.679688 L 2 19.679688 C 0.667969 19.679688 0.671875 21.738281 2 21.738281 L 8.0625 21.738281 C 8.632812 21.738281 9.09375 21.277344 9.09375 20.710938 Z M 17.601562 28.417969 L 7.835938 28.417969 C 6.503906 28.417969 6.507812 30.476562 7.835938 30.476562 L 17.601562 30.476562 C 18.171875 30.476562 18.636719 30.015625 18.636719 29.445312 C 18.636719 28.878906 18.171875 28.417969 17.601562 28.417969 Z M 20.128906 21.738281 C 20.695312 21.738281 21.1875 21.304688 21.207031 20.742188 C 21.222656 20.160156 20.753906 19.679688 20.171875 19.679688 L 11.644531 19.679688 C 11.070312 19.679688 10.609375 20.140625 10.609375 20.710938 C 10.609375 21.277344 11.070312 21.738281 11.644531 21.738281 L 20.128906 21.738281 " fill-opacity="1" fill-rule="nonzero"/></g><g clip-path="url(#f4ac90899b)"><path fill="#ffbe00" d="M 36.117188 16.511719 L 47.371094 16.511719 L 47.371094 25.78125 L 36.117188 25.78125 Z M 36.117188 16.511719 " fill-opacity="1" fill-rule="nonzero"/></g><g clip-path="url(#7e0e0e8fc0)"><path fill="#ffbe00" d="M 36.117188 22.449219 L 43.398438 22.449219 L 43.398438 28.410156 L 36.117188 28.410156 Z M 36.117188 22.449219 " fill-opacity="1" fill-rule="nonzero"/></g><path fill="#ffffff" d="M 37.679688 22.257812 C 37.789062 22.207031 37.886719 22.140625 37.96875 22.058594 C 38.050781 21.972656 38.117188 21.875 38.167969 21.765625 C 38.21875 21.65625 38.242188 21.535156 38.242188 21.410156 C 38.242188 21.28125 38.21875 21.164062 38.167969 21.054688 C 38.117188 20.941406 38.050781 20.84375 37.96875 20.761719 C 37.886719 20.679688 37.789062 20.613281 37.679688 20.5625 C 37.566406 20.515625 37.449219 20.488281 37.320312 20.488281 C 37.195312 20.488281 37.074219 20.515625 36.964844 20.5625 C 36.855469 20.613281 36.757812 20.679688 36.675781 20.761719 C 36.589844 20.84375 36.523438 20.941406 36.476562 21.054688 C 36.425781 21.164062 36.398438 21.28125 36.398438 21.410156 C 36.398438 21.535156 36.425781 21.65625 36.476562 21.765625 C 36.523438 21.875 36.589844 21.972656 36.675781 22.058594 C 36.757812 22.140625 36.855469 22.207031 36.964844 22.257812 C 37.074219 22.304688 37.195312 22.332031 37.320312 22.332031 C 37.449219 22.332031 37.566406 22.304688 37.679688 22.257812 " fill-opacity="1" fill-rule="nonzero"/><path fill="#ffffff" d="M 41.304688 23.929688 C 41.21875 23.847656 41.125 23.78125 41.011719 23.730469 C 40.902344 23.683594 40.785156 23.65625 40.65625 23.65625 C 40.527344 23.65625 40.410156 23.683594 40.300781 23.730469 C 40.1875 23.78125 40.09375 23.847656 40.007812 23.929688 C 39.925781 24.015625 39.859375 24.113281 39.808594 24.222656 C 39.761719 24.332031 39.734375 24.453125 39.734375 24.578125 C 39.734375 24.707031 39.761719 24.824219 39.808594 24.9375 C 39.859375 25.046875 39.925781 25.144531 40.007812 25.226562 C 40.09375 25.308594 40.1875 25.375 40.300781 25.425781 C 40.410156 25.476562 40.527344 25.5 40.65625 25.5 C 40.785156 25.5 40.902344 25.476562 41.011719 25.425781 C 41.125 25.375 41.21875 25.308594 41.304688 25.226562 C 41.386719 25.144531 41.453125 25.046875 41.503906 24.9375 C 41.550781 24.824219 41.578125 24.707031 41.578125 24.578125 C 41.578125 24.453125 41.550781 24.332031 41.503906 24.222656 C 41.453125 24.113281 41.386719 24.015625 41.304688 23.929688 " fill-opacity="1" fill-rule="nonzero"/><path fill="#ffffff" d="M 42.007812 25.160156 C 41.929688 25.335938 41.824219 25.492188 41.691406 25.625 C 41.558594 25.757812 41.40625 25.863281 41.230469 25.941406 C 41.050781 26.015625 40.859375 26.054688 40.65625 26.054688 C 40.449219 26.054688 40.261719 26.015625 40.085938 25.941406 C 39.90625 25.863281 39.753906 25.757812 39.621094 25.625 C 39.488281 25.492188 39.382812 25.335938 39.304688 25.160156 C 39.226562 24.984375 39.1875 24.792969 39.1875 24.585938 C 39.1875 24.382812 39.226562 24.191406 39.304688 24.015625 C 39.382812 23.839844 39.488281 23.683594 39.621094 23.550781 C 39.753906 23.417969 39.90625 23.3125 40.085938 23.234375 C 40.261719 23.15625 40.449219 23.117188 40.65625 23.117188 C 40.859375 23.117188 41.050781 23.15625 41.230469 23.234375 C 41.40625 23.3125 41.558594 23.417969 41.691406 23.550781 C 41.824219 23.683594 41.929688 23.839844 42.007812 24.015625 C 42.085938 24.191406 42.125 24.382812 42.125 24.585938 C 42.125 24.792969 42.085938 24.984375 42.007812 25.160156 Z M 37.644531 25.949219 L 37.023438 25.949219 L 40.242188 20.023438 L 40.863281 20.023438 Z M 36.285156 22.453125 C 36.152344 22.324219 36.046875 22.167969 35.96875 21.992188 C 35.890625 21.8125 35.851562 21.621094 35.851562 21.417969 C 35.851562 21.214844 35.890625 21.023438 35.96875 20.84375 C 36.046875 20.667969 36.152344 20.515625 36.285156 20.382812 C 36.417969 20.25 36.570312 20.144531 36.75 20.066406 C 36.925781 19.988281 37.117188 19.949219 37.320312 19.949219 C 37.527344 19.949219 37.71875 19.988281 37.894531 20.066406 C 38.070312 20.144531 38.226562 20.25 38.359375 20.382812 C 38.492188 20.515625 38.597656 20.667969 38.671875 20.84375 C 38.75 21.023438 38.789062 21.214844 38.789062 21.417969 C 38.789062 21.621094 38.75 21.8125 38.671875 21.992188 C 38.597656 22.167969 38.492188 22.324219 38.359375 22.453125 C 38.226562 22.585938 38.070312 22.691406 37.894531 22.769531 C 37.71875 22.847656 37.527344 22.886719 37.320312 22.886719 C 37.117188 22.886719 36.925781 22.847656 36.75 22.769531 C 36.570312 22.691406 36.417969 22.585938 36.285156 22.453125 Z M 45.054688 23.933594 L 45.683594 23.105469 L 45.070312 22.265625 L 45.445312 21.296875 L 44.617188 20.664062 L 44.703125 19.625 L 43.730469 19.253906 L 43.519531 18.234375 L 42.484375 18.148438 L 41.996094 17.230469 L 40.976562 17.4375 L 40.246094 16.695312 L 39.328125 17.183594 L 38.421875 16.679688 L 37.675781 17.402344 L 36.664062 17.175781 L 36.152344 18.082031 L 35.117188 18.148438 L 34.882812 19.160156 L 33.90625 19.511719 L 33.96875 20.550781 L 33.128906 21.167969 L 33.480469 22.144531 L 32.851562 22.972656 L 33.464844 23.8125 L 33.089844 24.785156 L 33.917969 25.414062 L 33.832031 26.453125 L 34.804688 26.828125 L 35.015625 27.84375 L 36.050781 27.929688 L 36.539062 28.847656 L 37.558594 28.640625 L 38.289062 29.382812 L 39.207031 28.894531 L 40.113281 29.402344 L 40.859375 28.675781 L 41.875 28.902344 L 42.382812 27.996094 L 43.417969 27.933594 L 43.652344 26.917969 L 44.628906 26.566406 L 44.566406 25.527344 L 45.40625 24.910156 L 45.054688 23.933594 " fill-opacity="1" fill-rule="nonzero"/></svg>